<svg xmlns="http://www.w3.org/2000/svg" xmlns:xlink="http://www.w3.org/1999/xlink"><symbol id="auto-like" viewBox="0 0 512 512">
<g>
	<g>
		<path d="M259.5,0.001c-29.799,0-48.698,16.745-60.008,32.904C188.182,16.745,169.283,0,139.484,0
			c-42.076,0-75.01,34.883-75.01,79.42c0,44.169,32.616,74.369,83.011,116.722v-24.687c0-28.949,23.058-52.507,52.007-52.507
			s53.007,23.558,53.007,52.507v24.695c49.986-41.972,82.011-72.273,82.011-116.729C334.51,34.884,301.576,0.001,259.5,0.001z" fill="currentColor"/>
	</g>
</g>
<g>
	<g>
		<path d="M425.022,271.968c-12.299,0-22.503,10.2-22.503,22.503v22.503c0,8.4-6.6,15.002-15.002,15.002
			c-8.402,0-15.002-6.602-15.002-15.002v-52.507c0-12.303-10.204-22.503-22.503-22.503c-12.299,0-22.503,10.2-22.503,22.503v52.507
			c0,8.4-6.6,15.002-15.002,15.002c-8.402,0-15.002-6.602-15.002-15.002v-52.507c0-12.303-10.204-22.503-22.503-22.503
			s-22.503,10.2-22.503,22.503v52.507c0,8.4-6.6,15.002-15.002,15.002s-15.002-6.602-15.002-15.002V174.455
			c0-12.303-10.204-22.503-22.503-22.503s-22.503,10.2-22.503,22.503v175.223c-15.903-16.201-38.706-39.005-38.706-39.005
			c-11.398-11.102-29.103-11.702-41.102-1.5c-11.706,10.2-13.804,28.204-4.205,40.805l81.61,94.814c2.402,2.399,4.806,4.8,7.801,6.6
			c10.804,7.501,18.907,18.302,23.104,30.605c0.601,1.5,1.201,3.3,1.501,4.8v10.202c0,8.285,6.717,15.002,15.002,15.002h180.024
			c8.285,0,15.002-6.717,15.002-15.002c0-4.502,3.3-9.601,7.201-15.002c1.501-2.1,3.003-3.901,4.502-5.701
			c8.699-10.801,18.302-22.803,18.302-39.305V294.471C447.525,282.168,437.322,271.968,425.022,271.968z" fill="currentColor"/>
	</g>
</g>
<g>
</g>
<g>
</g>
<g>
</g>
<g>
</g>
<g>
</g>
<g>
</g>
<g>
</g>
<g>
</g>
<g>
</g>
<g>
</g>
<g>
</g>
<g>
</g>
<g>
</g>
<g>
</g>
<g>
</g>
</symbol><symbol id="email" viewBox="0 0 512 512">
<g>
<g>
<g>
<path d="m229.965 186.739c7.333 5.972 16.578 9.261 26.035 9.261s18.702-3.289 26.035-9.261l204.274-166.378c-5.855-2.793-12.401-4.361-19.309-4.361h-422c-6.908 0-13.454 1.568-19.309 4.362z" fill="currentColor"/>
<path d="m512 61c0-6.91-1.57-13.46-4.365-19.317l-171.049 139.317 171.05 139.317c2.794-5.857 4.364-12.407 4.364-19.317z" fill="currentColor"/>
<path d="m4.365 41.683c-2.795 5.857-4.365 12.407-4.365 19.317v240c0 6.91 1.57 13.46 4.365 19.317l171.049-139.317z" fill="currentColor"/>
</g>
<path d="m256 296c-55.228 0-100 44.771-100 100s44.772 100 100 100c55.229 0 100-44.771 100-100s-44.771-100-100-100zm19 145c0 8.284-6.716 15-15 15s-15-6.716-15-15v-75h-4.237c-8.284 0-15-6.716-15-15s6.716-15 15-15h19.237c8.284 0 15 6.716 15 15z" fill="currentColor"/>
</g>
<path d="m312.833 200.346-11.853 9.654c-12.668 10.318-28.642 16-44.98 16s-32.312-5.682-44.98-16l-11.853-9.654-173.476 141.292c5.855 2.794 12.401 4.362 19.309 4.362h91.006c19.63-46.935 66.021-80 119.994-80s100.364 33.065 119.994 80h91.006c6.907 0 13.454-1.568 19.309-4.361z" fill="currentColor"/>
</g>
</symbol><symbol id="eye" viewBox="0 0 512 512">
<g>
	<g>
		<path d="M508.177,245.995C503.607,240.897,393.682,121,256,121S8.394,240.897,3.823,245.995c-5.098,5.698-5.098,14.312,0,20.01
			C8.394,271.103,118.32,391,256,391s247.606-119.897,252.177-124.995C513.274,260.307,513.274,251.693,508.177,245.995z M256,361
			c-57.891,0-105-47.109-105-105s47.109-105,105-105s105,47.109,105,105S313.891,361,256,361z" fill="currentColor"/>
	</g>
</g>
<g>
	<g>
		<path d="M271,226c0-15.09,7.491-28.365,18.887-36.53C279.661,184.235,268.255,181,256,181c-41.353,0-75,33.647-75,75
			c0,41.353,33.647,75,75,75c37.024,0,67.668-27.034,73.722-62.358C299.516,278.367,271,255.522,271,226z" fill="currentColor"/>
	</g>
</g>
<g>
</g>
<g>
</g>
<g>
</g>
<g>
</g>
<g>
</g>
<g>
</g>
<g>
</g>
<g>
</g>
<g>
</g>
<g>
</g>
<g>
</g>
<g>
</g>
<g>
</g>
<g>
</g>
<g>
</g>
</symbol><symbol id="filter" viewBox="0 0 512 512">
<g>
<path d="m187.304 252.717c8.045 11.642 5.64 1.941 5.64 233.997 0 20.766 23.692 32.651 40.39 20.23 71.353-53.797 85.609-58.456 85.609-83.619 0-169.104-1.971-159.594 5.64-170.608l115.869-157.718h-369.016z" fill="currentColor"/>
<path d="m484.221 12.86c-4.14-7.93-12.26-12.86-21.199-12.86h-414.156c-19.305 0-30.664 21.777-19.59 37.6.091.152-1.257-1.693 20.12 27.4h413.095c18.217-24.793 30.394-35.505 21.73-52.14z" fill="currentColor"/>
</g>
</symbol><symbol id="group" viewBox="0 0 511.999 511.999">
<g>
	<g>
		<path d="M438.09,273.32h-39.596c4.036,11.05,6.241,22.975,6.241,35.404v149.65c0,5.182-0.902,10.156-2.543,14.782h65.461
			c24.453,0,44.346-19.894,44.346-44.346v-81.581C512,306.476,478.844,273.32,438.09,273.32z" fill="currentColor"/>
	</g>
</g>
<g>
	<g>
		<path d="M107.265,308.725c0-12.43,2.205-24.354,6.241-35.404H73.91c-40.754,0-73.91,33.156-73.91,73.91v81.581
			c0,24.452,19.893,44.346,44.346,44.346h65.462c-1.641-4.628-2.543-9.601-2.543-14.783V308.725z" fill="currentColor"/>
	</g>
</g>
<g>
	<g>
		<path d="M301.261,234.815h-90.522c-40.754,0-73.91,33.156-73.91,73.91v149.65c0,8.163,6.618,14.782,14.782,14.782h208.778
			c8.164,0,14.782-6.618,14.782-14.782v-149.65C375.171,267.971,342.015,234.815,301.261,234.815z" fill="currentColor"/>
	</g>
</g>
<g>
	<g>
		<path d="M256,38.84c-49.012,0-88.886,39.874-88.886,88.887c0,33.245,18.349,62.28,45.447,77.524
			c12.853,7.23,27.671,11.362,43.439,11.362c15.768,0,30.586-4.132,43.439-11.362c27.099-15.244,45.447-44.28,45.447-77.524
			C344.886,78.715,305.012,38.84,256,38.84z" fill="currentColor"/>
	</g>
</g>
<g>
	<g>
		<path d="M99.918,121.689c-36.655,0-66.475,29.82-66.475,66.475c0,36.655,29.82,66.475,66.475,66.475
			c9.298,0,18.152-1.926,26.195-5.388c13.906-5.987,25.372-16.585,32.467-29.86c4.98-9.317,7.813-19.946,7.813-31.227
			C166.393,151.51,136.573,121.689,99.918,121.689z" fill="currentColor"/>
	</g>
</g>
<g>
	<g>
		<path d="M412.082,121.689c-36.655,0-66.475,29.82-66.475,66.475c0,11.282,2.833,21.911,7.813,31.227
			c7.095,13.276,18.561,23.874,32.467,29.86c8.043,3.462,16.897,5.388,26.195,5.388c36.655,0,66.475-29.82,66.475-66.475
			C478.557,151.509,448.737,121.689,412.082,121.689z" fill="currentColor"/>
	</g>
</g>
<g>
</g>
<g>
</g>
<g>
</g>
<g>
</g>
<g>
</g>
<g>
</g>
<g>
</g>
<g>
</g>
<g>
</g>
<g>
</g>
<g>
</g>
<g>
</g>
<g>
</g>
<g>
</g>
<g>
</g>
</symbol><symbol id="heart" viewBox="0 0 168.1 168.1">
<g>
	<path d="M143.558,20.077c-6.823-3.625-14.633-5.699-22.954-5.699c-14.66,0-27.832,6.438-36.526,16.515
		C75.325,20.815,62.197,14.378,47.5,14.378c-8.313,0-16.141,2.068-22.957,5.699C9.913,27.83,0,42.774,0,60.033
		c0,4.944,0.835,9.639,2.349,14.082c8.125,35.202,60.155,79.606,81.733,79.606c20.982,0,73.512-44.404,81.672-79.606
		c1.514-4.443,2.346-9.138,2.346-14.082C168.107,42.774,158.185,27.83,143.558,20.077z M152.812,70.102
		c-0.472,1.313-1.695,2.132-3.043,2.132c-0.338,0-0.679,0-1.028-0.118c-1.691-0.571-2.567-2.377-2.003-4.074
		c0.91-2.684,1.378-5.373,1.378-8.008c0-9.565-5.444-18.378-14.153-22.949c-4.16-2.25-8.632-3.379-13.358-3.379
		c-1.779,0-3.185-1.378-3.185-3.195c0-1.749,1.405-3.182,3.185-3.182c5.744,0,11.261,1.378,16.352,4.073
		c10.827,5.748,17.547,16.692,17.547,28.632C154.502,63.407,153.949,66.791,152.812,70.102z" fill="currentColor"/>
</g>
<g>
</g>
<g>
</g>
<g>
</g>
<g>
</g>
<g>
</g>
<g>
</g>
<g>
</g>
<g>
</g>
<g>
</g>
<g>
</g>
<g>
</g>
<g>
</g>
<g>
</g>
<g>
</g>
<g>
</g>
</symbol><symbol id="next" viewBox="0 0 512.002 512.002">
<g>
	<g>
		<path d="M388.425,241.951L151.609,5.79c-7.759-7.733-20.321-7.72-28.067,0.04c-7.74,7.759-7.72,20.328,0.04,28.067l222.72,222.105
			L123.574,478.106c-7.759,7.74-7.779,20.301-0.04,28.061c3.883,3.89,8.97,5.835,14.057,5.835c5.074,0,10.141-1.932,14.017-5.795
			l236.817-236.155c3.737-3.718,5.834-8.778,5.834-14.05S392.156,245.676,388.425,241.951z" color="currentColor"/>
	</g>
</g>
<g>
</g>
<g>
</g>
<g>
</g>
<g>
</g>
<g>
</g>
<g>
</g>
<g>
</g>
<g>
</g>
<g>
</g>
<g>
</g>
<g>
</g>
<g>
</g>
<g>
</g>
<g>
</g>
<g>
</g>
</symbol><symbol id="vk" viewBox="0 0 304.36 304.36">
<g id="XMLID_1_">
	<path id="XMLID_807_" style="fill-rule:evenodd;clip-rule:evenodd;" d="M261.945,175.576c10.096,9.857,20.752,19.131,29.807,29.982
		c4,4.822,7.787,9.798,10.684,15.394c4.105,7.955,0.387,16.709-6.746,17.184l-44.34-0.02c-11.436,0.949-20.559-3.655-28.23-11.474
		c-6.139-6.253-11.824-12.908-17.727-19.372c-2.42-2.642-4.953-5.128-7.979-7.093c-6.053-3.929-11.307-2.726-14.766,3.587
		c-3.523,6.421-4.322,13.531-4.668,20.687c-0.475,10.441-3.631,13.186-14.119,13.664c-22.414,1.057-43.686-2.334-63.447-13.641
		c-17.422-9.968-30.932-24.04-42.691-39.971C34.828,153.482,17.295,119.395,1.537,84.353C-2.01,76.458,0.584,72.22,9.295,72.07
		c14.465-0.281,28.928-0.261,43.41-0.02c5.879,0.086,9.771,3.458,12.041,9.012c7.826,19.243,17.402,37.551,29.422,54.521
		c3.201,4.518,6.465,9.036,11.113,12.216c5.142,3.521,9.057,2.354,11.476-3.374c1.535-3.632,2.207-7.544,2.553-11.434
		c1.146-13.383,1.297-26.743-0.713-40.079c-1.234-8.323-5.922-13.711-14.227-15.286c-4.238-0.803-3.607-2.38-1.555-4.799
		c3.564-4.172,6.916-6.769,13.598-6.769h50.111c7.889,1.557,9.641,5.101,10.721,13.039l0.043,55.663
		c-0.086,3.073,1.535,12.192,7.07,14.226c4.43,1.448,7.35-2.096,10.008-4.905c11.998-12.734,20.561-27.783,28.211-43.366
		c3.395-6.852,6.314-13.968,9.143-21.078c2.096-5.276,5.385-7.872,11.328-7.757l48.229,0.043c1.43,0,2.877,0.021,4.262,0.258
		c8.127,1.385,10.354,4.881,7.844,12.817c-3.955,12.451-11.65,22.827-19.174,33.251c-8.043,11.129-16.645,21.877-24.621,33.072
		C252.26,161.544,252.842,166.697,261.945,175.576L261.945,175.576z M261.945,175.576" fill="currentColor"/>
</g>
<g>
</g>
<g>
</g>
<g>
</g>
<g>
</g>
<g>
</g>
<g>
</g>
<g>
</g>
<g>
</g>
<g>
</g>
<g>
</g>
<g>
</g>
<g>
</g>
<g>
</g>
<g>
</g>
<g>
</g>
</symbol><symbol id="cancel" viewBox="0 0 409.806 409.806">
<g>
	<g>
		<path d="M228.929,205.01L404.596,29.343c6.78-6.548,6.968-17.352,0.42-24.132c-6.548-6.78-17.352-6.968-24.132-0.42
			c-0.142,0.137-0.282,0.277-0.42,0.42L204.796,180.878L29.129,5.21c-6.78-6.548-17.584-6.36-24.132,0.42
			c-6.388,6.614-6.388,17.099,0,23.713L180.664,205.01L4.997,380.677c-6.663,6.664-6.663,17.468,0,24.132
			c6.664,6.662,17.468,6.662,24.132,0l175.667-175.667l175.667,175.667c6.78,6.548,17.584,6.36,24.132-0.42
			c6.387-6.614,6.387-17.099,0-23.712L228.929,205.01z" fill="currentColor"/>
	</g>
</g>
<g>
</g>
<g>
</g>
<g>
</g>
<g>
</g>
<g>
</g>
<g>
</g>
<g>
</g>
<g>
</g>
<g>
</g>
<g>
</g>
<g>
</g>
<g>
</g>
<g>
</g>
<g>
</g>
<g>
</g>
</symbol><symbol id="menu" viewBox="0 0 384.97 384.97">
<g>
	<g id="Menu_1_">
		<path d="M12.03,120.303h360.909c6.641,0,12.03-5.39,12.03-12.03c0-6.641-5.39-12.03-12.03-12.03H12.03
			c-6.641,0-12.03,5.39-12.03,12.03C0,114.913,5.39,120.303,12.03,120.303z"/>
		<path d="M372.939,180.455H12.03c-6.641,0-12.03,5.39-12.03,12.03s5.39,12.03,12.03,12.03h360.909c6.641,0,12.03-5.39,12.03-12.03
			S379.58,180.455,372.939,180.455z"/>
		<path d="M372.939,264.667H132.333c-6.641,0-12.03,5.39-12.03,12.03c0,6.641,5.39,12.03,12.03,12.03h240.606
			c6.641,0,12.03-5.39,12.03-12.03C384.97,270.056,379.58,264.667,372.939,264.667z"/>
	</g>
	<g>
	</g>
	<g>
	</g>
	<g>
	</g>
	<g>
	</g>
	<g>
	</g>
	<g>
	</g>
</g>
<g>
</g>
<g>
</g>
<g>
</g>
<g>
</g>
<g>
</g>
<g>
</g>
<g>
</g>
<g>
</g>
<g>
</g>
<g>
</g>
<g>
</g>
<g>
</g>
<g>
</g>
<g>
</g>
<g>
</g>
</symbol><symbol id="user" viewBox="0 0 512 512">
<g>
	<g>
		<path d="M437.02,330.98c-27.883-27.882-61.071-48.523-97.281-61.018C378.521,243.251,404,198.548,404,148
			C404,66.393,337.607,0,256,0S108,66.393,108,148c0,50.548,25.479,95.251,64.262,121.962
			c-36.21,12.495-69.398,33.136-97.281,61.018C26.629,379.333,0,443.62,0,512h40c0-119.103,96.897-216,216-216s216,96.897,216,216
			h40C512,443.62,485.371,379.333,437.02,330.98z M256,256c-59.551,0-108-48.448-108-108S196.449,40,256,40
			c59.551,0,108,48.448,108,108S315.551,256,256,256z"/>
	</g>
</g>
<g>
</g>
<g>
</g>
<g>
</g>
<g>
</g>
<g>
</g>
<g>
</g>
<g>
</g>
<g>
</g>
<g>
</g>
<g>
</g>
<g>
</g>
<g>
</g>
<g>
</g>
<g>
</g>
<g>
</g>
</symbol><symbol id="right-arrow" viewBox="0 0 476.213 476.213">
<polygon points="345.606,107.5 324.394,128.713 418.787,223.107 0,223.107 0,253.107 418.787,253.107 324.394,347.5 
	345.606,368.713 476.213,238.106 "/>
<g>
</g>
<g>
</g>
<g>
</g>
<g>
</g>
<g>
</g>
<g>
</g>
<g>
</g>
<g>
</g>
<g>
</g>
<g>
</g>
<g>
</g>
<g>
</g>
<g>
</g>
<g>
</g>
<g>
</g>
</symbol><symbol id="key" viewBox="0 0 512 512">
<g>
	<g>
		<path d="M463.748,48.251c-64.336-64.336-169.013-64.335-233.349,0.001c-43.945,43.945-59.209,108.706-40.181,167.461
			L4.396,401.536c-2.813,2.813-4.395,6.621-4.395,10.606V497c0,8.291,6.709,15,15,15h84.858c3.984,0,7.793-1.582,10.605-4.395
			l21.211-21.226c3.237-3.237,4.819-7.778,4.292-12.334l-2.637-22.793l31.582-2.974c7.178-0.674,12.847-6.343,13.521-13.521
			l2.974-31.582l22.793,2.651c4.233,0.571,8.496-0.85,11.704-3.691c3.193-2.856,5.024-6.929,5.024-11.206V363h27.422
			c3.984,0,7.793-1.582,10.605-4.395l38.467-37.958c58.74,19.043,122.381,4.929,166.326-39.046
			C528.084,217.266,528.084,112.587,463.748,48.251z M421.313,154.321c-17.549,17.549-46.084,17.549-63.633,0
			s-17.549-46.084,0-63.633s46.084-17.549,63.633,0S438.861,136.772,421.313,154.321z" fill="currentColor"/>
	</g>
</g>
<g>
</g>
<g>
</g>
<g>
</g>
<g>
</g>
<g>
</g>
<g>
</g>
<g>
</g>
<g>
</g>
<g>
</g>
<g>
</g>
<g>
</g>
<g>
</g>
<g>
</g>
<g>
</g>
<g>
</g>
</symbol><symbol id="user-login" viewBox="0 0 460.8 460.8">
<g>
	<g>
		<path d="M230.432,0c-65.829,0-119.641,53.812-119.641,119.641s53.812,119.641,119.641,119.641s119.641-53.812,119.641-119.641
			S296.261,0,230.432,0z" fill="currentColor"/>
	</g>
</g>
<g>
	<g>
		<path d="M435.755,334.89c-3.135-7.837-7.314-15.151-12.016-21.943c-24.033-35.527-61.126-59.037-102.922-64.784
			c-5.224-0.522-10.971,0.522-15.151,3.657c-21.943,16.196-48.065,24.555-75.233,24.555s-53.29-8.359-75.233-24.555
			c-4.18-3.135-9.927-4.702-15.151-3.657c-41.796,5.747-79.412,29.257-102.922,64.784c-4.702,6.792-8.882,14.629-12.016,21.943
			c-1.567,3.135-1.045,6.792,0.522,9.927c4.18,7.314,9.404,14.629,14.106,20.898c7.314,9.927,15.151,18.808,24.033,27.167
			c7.314,7.314,15.673,14.106,24.033,20.898c41.273,30.825,90.906,47.02,142.106,47.02s100.833-16.196,142.106-47.02
			c8.359-6.269,16.718-13.584,24.033-20.898c8.359-8.359,16.718-17.241,24.033-27.167c5.224-6.792,9.927-13.584,14.106-20.898
			C436.8,341.682,437.322,338.024,435.755,334.89z" fill="currentColor"/>
	</g>
</g>
<g>
</g>
<g>
</g>
<g>
</g>
<g>
</g>
<g>
</g>
<g>
</g>
<g>
</g>
<g>
</g>
<g>
</g>
<g>
</g>
<g>
</g>
<g>
</g>
<g>
</g>
<g>
</g>
<g>
</g>
</symbol><symbol id="slider-arrow" viewBox="0 0 476.213 476.213">
<polygon points="345.606,107.5 324.394,128.713 418.787,223.107 0,223.107 0,253.107 418.787,253.107 324.394,347.5
	345.606,368.713 476.213,238.106" fill="currentColor"/>
<g>
</g>
<g>
</g>
<g>
</g>
<g>
</g>
<g>
</g>
<g>
</g>
<g>
</g>
<g>
</g>
<g>
</g>
<g>
</g>
<g>
</g>
<g>
</g>
<g>
</g>
<g>
</g>
<g>
</g>
</symbol><symbol id="chat" viewBox="0 0 60 60">
<path d="M6,2h48c3.252,0,6,2.748,6,6v33c0,3.252-2.748,6-6,6H25.442L15.74,57.673C15.546,57.885,15.276,58,15,58
	c-0.121,0-0.243-0.022-0.361-0.067C14.254,57.784,14,57.413,14,57V47H6c-3.252,0-6-2.748-6-6L0,8C0,4.748,2.748,2,6,2z" fill="currentColor"/>
<g>
</g>
<g>
</g>
<g>
</g>
<g>
</g>
<g>
</g>
<g>
</g>
<g>
</g>
<g>
</g>
<g>
</g>
<g>
</g>
<g>
</g>
<g>
</g>
<g>
</g>
<g>
</g>
<g>
</g>
</symbol><symbol id="like" viewBox="0 0 512 512">
<g>
	<g>
		<path d="M376,30c-27.783,0-53.255,8.804-75.707,26.168c-21.525,16.647-35.856,37.85-44.293,53.268
			c-8.437-15.419-22.768-36.621-44.293-53.268C189.255,38.804,163.783,30,136,30C58.468,30,0,93.417,0,177.514
			c0,90.854,72.943,153.015,183.369,247.118c18.752,15.981,40.007,34.095,62.099,53.414C248.38,480.596,252.12,482,256,482
			s7.62-1.404,10.532-3.953c22.094-19.322,43.348-37.435,62.111-53.425C439.057,330.529,512,268.368,512,177.514
			C512,93.417,453.532,30,376,30z" fill="currentColor"/>
	</g>
</g>
<g>
</g>
<g>
</g>
<g>
</g>
<g>
</g>
<g>
</g>
<g>
</g>
<g>
</g>
<g>
</g>
<g>
</g>
<g>
</g>
<g>
</g>
<g>
</g>
<g>
</g>
<g>
</g>
<g>
</g>
</symbol><symbol id="share" viewBox="0 0 477.862 477.862">
<g>
	<g>
		<path transform="scale (-1, 1)" transform-origin="center" d="M187.722,102.856V17.062C187.719,7.636,180.076-0.003,170.65,0c-4.834,0.001-9.44,2.053-12.676,5.644L4.375,176.311
			c-5.617,6.256-5.842,15.67-0.529,22.187l153.6,187.733c5.968,7.295,16.72,8.371,24.016,2.403c3.952-3.233,6.249-8.066,6.26-13.172
			v-85.043c134.827,4.386,218.965,62.02,256.888,175.787c2.326,6.96,8.841,11.653,16.179,11.656c0.92,0.003,1.84-0.072,2.748-0.222
			c8.256-1.347,14.319-8.479,14.319-16.845C477.855,259.818,356.87,112.174,187.722,102.856z" fill="currentColor"/>
	</g>
</g>
<g>
</g>
<g>
</g>
<g>
</g>
<g>
</g>
<g>
</g>
<g>
</g>
<g>
</g>
<g>
</g>
<g>
</g>
<g>
</g>
<g>
</g>
<g>
</g>
<g>
</g>
<g>
</g>
<g>
</g>
</symbol><symbol id="businessman" viewBox="0 0 297 297">
  <g>
    <path d="M148.51,117.216c32.317,0,58.608-26.291,58.608-58.608S180.827,0,148.51,0c-32.317,0-58.608,26.291-58.608,58.608   S116.193,117.216,148.51,117.216z"/>
    <path d="m227.154,145.618c-0.025-0.008-0.073-0.026-0.098-0.032-7.631-1.864-30.999-5.133-30.999-5.133-2.638-0.812-5.457,0.585-6.406,3.188l-35.174,96.509c-2.029,5.567-9.903,5.567-11.932,0l-35.174-96.509c-0.766-2.102-2.75-3.42-4.876-3.42-0.504,0-24.531,3.369-32.53,5.358-21.858,5.435-35.645,26.929-35.645,49.329v80.302c0,12.034 9.756,21.79 21.79,21.79h184.782c12.034,0 21.79-9.756 21.79-21.79v-80.569c-0.001-22.303-14.328-42.096-35.528-49.023z"/>
    <path d="m161.775,138.613c-1.404-1.53-3.456-2.299-5.532-2.299h-15.485c-2.076,0-4.129,0.77-5.532,2.299-2.173,2.368-2.489,5.789-0.946,8.462l8.278,12.479-3.875,32.69 7.631,20.3c0.744,2.042 3.631,2.042 4.375,0l7.631-20.3-3.875-32.69 8.278-12.479c1.541-2.673 1.225-6.094-0.948-8.462z"/>
  </g>
</symbol><symbol id="freelancer" viewBox="0 -23 511.99812 511"><path d="m143.554688.621094c-27.09375-1.921875-50.617188 18.484375-52.539063 45.578125s18.480469 50.617187 45.574219 52.539062c27.097656 1.925781 50.617187-18.480469 52.542968-45.574219 1.921876-27.09375-18.484374-50.617187-45.578124-52.542968zm0 0"/><path d="m294.054688 87.351562c-3.300782 0-5.90625 4.34375-5.90625 7.296876 0 5.554687 8.511718 10.941406 18.929687 11.289062v2.167969c0 1.21875 1.390625 2.347656 3.300781 2.347656 1.648438 0 3.300782-1.128906 3.300782-2.347656v-2.515625c10.160156-1.652344 17.109374-8.164063 17.109374-18.933594 0-11.722656-9.207031-15.804688-17.109374-18.757812v-12.679688c5.644531.433594 7.292968 3.214844 10.160156 3.214844 3.820312 0 5.386718-4.777344 5.386718-7.121094 0-5.992188-10.164062-7.382812-15.546874-7.554688v-2.171874c0-1.214844-1.648438-2.347657-3.300782-2.347657-1.910156 0-3.300781 1.132813-3.300781 2.347657v2.429687c-9.203125 1.304687-17.367187 6.601563-17.367187 17.628906 0 11.117188 9.378906 14.851563 17.367187 17.890625v14.066406c-6.421875-1.125-9.378906-6.25-13.023437-6.25zm18.757812-5.472656c3.125 1.476563 5.296875 3.300782 5.296875 6.167969 0 3.125-2.34375 4.773437-5.296875 5.46875zm-10.421875-21.535156c0-2.085938 1.648437-4.082031 5.558594-4.863281v10.332031c-3.300781-1.386719-5.558594-2.949219-5.558594-5.46875zm0 0"/><path d="m279.34375 353.441406v92.515625c0 6.945313-1.933594 13.4375-5.292969 18.96875 4.789063 1.128907 9.851563.9375 14.714844-.71875 13.980469-4.753906 21.460937-19.941406 16.707031-33.921875zm0 0"/><path d="m502.1875 222.820312h-3.367188c2.273438-1.425781 3.414063-4.378906 2.246094-7.125-2.320312-5.433593-8.742187-20.492187-9.472656-22.203124-.472656-1.109376-1.273438-2.007813-2.253906-2.617188h6.441406c4.117188 0 6.902344-4.207031 5.285156-8l-9.472656-22.203125c-.902344-2.117187-2.980469-3.492187-5.285156-3.492187h-64.632813c-2.25 0-4.292969 1.3125-5.230469 3.359374l-10.140624 22.203126c-1.738282 3.804687 1.042968 8.132812 5.226562 8.132812h7.105469c-.941407.585938-1.710938 1.4375-2.191407 2.484375-2.34375 5.132813-7.773437 17.023437-10.140624 22.203125-1.261719 2.769531-.132813 5.804688 2.1875 7.257812h-57.167969c4.304687-1.023437 7.984375-3.960937 9.886719-8.09375 8.921874-19.402343 31.9375-69.445312 37.207031-80.902343 3.367187-7.324219.160156-15.988281-7.160157-19.355469-7.320312-3.367188-15.988281-.164062-19.355468 7.160156l-33.300782 72.40625c-20.78125 0-41.726562 0-62.71875 0 2.257813-4.804687 2.816407-10.429687 1.15625-15.914062-3.566406-11.777344-16-18.4375-27.78125-14.871094l-75.910156 22.972656-33.398437-36.355468 28.222656 17.90625 4.332031-1.90625.960938-16.871094c1.042968-18.316406-12.960938-34.015625-31.28125-35.058594l-31.820313-1.808594c-32.585937-1.855468-59.898437 24.472656-59.191406 57.140625l1.589844 73.695313-16.015625-126.476563c-1.28125-10.105469-10.507813-17.261719-20.617188-15.980469-10.105468 1.277344-17.261718 10.507813-15.980468 20.613282l25.929687 204.761718c1.167969 9.21875 9.007813 16.128907 18.300781 16.128907h54.6875v76.699219h-18.757812c-3.261719 0-6.390625 1.296874-8.695313 3.601562l-22.332031 22.335938c-4.804688 4.800781-4.804688 12.585937 0 17.386718 4.800781 4.804688 12.585938 4.800782 17.390625 0l18.726563-18.730468h50.328124l18.734376 18.730468c4.800781 4.804688 12.585937 4.804688 17.390624 0 4.800782-4.800781 4.800782-12.585937 0-17.386718l-22.335937-22.335938c-2.304687-2.304688-5.433594-3.601562-8.695313-3.601562h-17.164062v-76.699219h54.875c10.863281 0 19.441406-9.359375 18.351562-20.292969l9.289063 2.398438v-31.554688h-1.96875c-13.480469 0-24.449219-10.96875-24.449219-24.449219v-6.046875l-12.546875-3.238281.316407-5.550781c-12.15625 2.15625-24.675782-3.886719-30.378907-15.285156l-27.5625-55.308594 40.410157 43.992187c5.765624 6.277344 14.644531 8.742188 22.863281 6.253907.285156-.085938 22.800781-6.898438 24.660156-7.460938-1.917969 1.789062-3.125 4.335938-3.125 7.164062v35.480469c0 5.421875 4.394531 9.8125 9.8125 9.8125h18.582031v167.742188c0 11.03125 8.941406 19.972656 19.972656 19.972656 11.027344 0 19.96875-8.941406 19.96875-19.972656v-167.742188h180.933594v167.742188c0 11.03125 8.941406 19.972656 19.972656 19.972656 11.027344 0 19.96875-8.941406 19.96875-19.972656 0-10.3125 0-157.929688 0-167.742188h18.582032c5.421875 0 9.816406-4.390625 9.816406-9.8125v-35.480469c0-5.425781-4.402344-9.8125-9.8125-9.8125zm-295.925781 0 44.945312-13.601562c.265625 6.640625 4.957031 12.132812 11.214844 13.601562zm0 0"/><path d="m423.746094 100.671875.003906.003906c3.492188 1.910157 6.367188 4.785157 8.28125 8.28125.996094 1.824219 3.613281 1.824219 4.613281 0 1.914063-3.496093 4.785157-6.371093 8.28125-8.28125v-.003906c1.824219-.996094 1.824219-3.613281 0-4.613281-3.496093-1.910156-6.371093-4.785156-8.28125-8.28125-1-1.824219-3.617187-1.824219-4.613281 0-1.914062 3.496094-4.789062 6.371094-8.285156 8.28125-1.820313 1-1.820313 3.617187 0 4.613281zm0 0"/><path d="m446.894531 60.738281c2.410157 1.316407 4.394531 3.300781 5.714844 5.714844.6875 1.261719 2.496094 1.261719 3.183594 0 1.320312-2.414063 3.304687-4.394531 5.714843-5.714844 1.261719-.6875 1.261719-2.496093 0-3.183593-2.410156-1.320313-4.394531-3.304688-5.714843-5.714844v-.003906c-.6875-1.257813-2.496094-1.257813-3.183594 0-1.320313 2.414062-3.304687 4.398437-5.714844 5.71875-1.257812.6875-1.257812 2.492187 0 3.183593zm0 0"/><path d="m404.015625 63.519531c1.777344.972657 3.238281 2.433594 4.210937 4.214844.507813.925781 1.839844.925781 2.347657 0 .972656-1.78125 2.433593-3.242187 4.210937-4.214844.929688-.507812.929688-1.839843 0-2.347656-1.777344-.972656-3.238281-2.433594-4.210937-4.210937-.507813-.925782-1.839844-.925782-2.347657 0-.972656 1.777343-2.433593 3.238281-4.210937 4.210937l-.003906.003906c-.925781.503907-.925781 1.835938.003906 2.34375zm0 0"/></symbol><symbol id="social-growth" viewBox="0 0 510 510"><g id="XMLID_4651_"><path id="XMLID_4653_" d="m135 237.047c-74.439 0-135 60.561-135 135 0 43.662 20.841 82.542 53.091 107.234v-3.234c0-29.875 16.084-56.055 40.041-70.363-9.277-10.117-14.95-23.589-14.95-38.364 0-31.329 25.488-56.817 56.818-56.817s56.818 25.488 56.818 56.817c0 14.775-5.673 28.247-14.95 38.364 23.957 14.309 40.041 40.488 40.041 70.363v3.234c32.25-24.692 53.091-63.572 53.091-107.234 0-74.439-60.561-135-135-135z"/><path id="XMLID_4672_" d="m135 424.138c-28.623 0-51.909 23.286-51.909 51.909v20.615c33.11 13.844 70.665 13.861 103.818 0v-20.615c0-28.623-23.286-51.909-51.909-51.909z"/><path id="XMLID_4675_" d="m161.818 367.319c0-14.787-12.031-26.817-26.818-26.817s-26.818 12.03-26.818 26.817c0 14.788 12.03 26.818 26.818 26.818s26.818-12.029 26.818-26.818z"/><path id="XMLID_167_" d="m270 277.289c16.134 22.918 26.641 50.256 29.311 79.758h30.689c0-9.336 0-230.587 0-240v-.246h-60z"/><path id="XMLID_166_" d="m240 244.861v-82.814h-60v51.238c22.262 6.319 42.622 17.204 60 31.576z"/><path id="XMLID_109_" d="m360 356.801c4.48-.019 55.517.019 60 0v-285h-60z"/><path id="XMLID_108_" d="m449 27.047v330h61v-330h-61z"/><path id="XMLID_43_" d="m92.574 98.408 42.426 42.426 116.672-116.673-21.213-21.213-95.459 95.459-42.426-42.425-68.664 68.663 21.213 21.213z"/></g></symbol><symbol id="writing-tool" viewBox="0 -46 511.99989 511"><path d="m60.273438 318.582031-14.074219 20.101563c-.925781 1.320312-1.625 2.78125-2.085938 4.332031l-13.523437 45.46875c-1.84375 6.183594.476562 12.855469 5.769531 16.558594 5.292969 3.707031 12.351563 3.609375 17.535156-.238281l37.925781-28.132813c-18.410156-13.03125-30.558593-34.105469-31.546874-58.089844zm0 0"/><path d="m497 180.515625h-45.003906v224.996094c0 11.152343 11.734375 18.40625 21.710937 13.417969l32.226563-23.902344c3.816406-2.828125 6.066406-7.300782 6.066406-12.046875v-187.464844c0-8.285156-6.714844-15-15-15zm0 0"/><path d="m299.410156 3.21875c-6.792968-4.757812-16.136718-3.109375-20.894531 3.683594l-25.8125 36.863281 49.152344 34.417969 25.8125-36.863282c4.757812-6.792968 3.109375-16.136718-3.683594-20.894531zm0 0"/><path d="m112.195312 244.433594c7.226563-2.324219 14.785157-3.917969 22.773438-3.917969h53.21875l96.460938-137.757813-49.152344-34.417968zm0 0"/><path d="m107.445312 118.078125c-8.292968 3.601563-15.222656 9.519531-20.070312 17.152344l-82.667969 130.164062c-10.359375 20.730469-3.007812 45.558594 16.074219 57.816407.347656-.546876.460938-1.191407.832031-1.722657l161.261719-230.3125c-6.019531-.363281-12.171875.019531-18.371094 2.113281zm0 0"/><path d="m119.96875 389.011719v9.019531c0 12.425781 10.074219 22.5 22.503906 22.5 12.425782 0 22.5-10.074219 22.5-22.5v-7.5h-30.003906c-5.132812 0-10.148438-.53125-15-1.519531zm0 0"/><path d="m194.976562 390.53125v7.5c0 12.425781 10.074219 22.5 22.5 22.5 11.007813 0 19.746094-8.058594 21.695313-18.503906-4.886719-2.023438-9.851563-3.851563-14.589844-6.195313l-10.402343-5.304687h-19.203126zm0 0"/><path d="m421.992188 180.515625h-27.53125l-95.324219-46.152344-73.398438 104.832031c18.25-2.835937 35.503907-11.148437 48.636719-24.285156 5.859375-5.859375 15.355469-5.859375 21.214844 0s5.859375 15.355469 0 21.214844c-21.859375 21.855469-52.125 34.398438-83.035156 34.398438-16.140626 0-82.199219 0-77.582032 0-24.03125 0-45.003906 19.515624-45.003906 45 0 24.90625 20.101562 45.003906 45.003906 45.003906h86.40625c7.203125 2.816406 47.28125 30.003906 108.609375 30.003906 31.039063 0 64.03125-7.253906 92.003907-20.707031zm0 0"/></symbol><symbol id="play" viewBox="0 0 21 24">
<path fill-rule="evenodd" fill="currentColor" d="M20.998,12.000 L0.002,0.003 L0.002,23.997 L20.998,12.000 "/>
</symbol></svg>